<svg width="58" height="58" viewBox="0 0 58 58" fill="none" xmlns="http://www.w3.org/2000/svg">
<path d="M36.4031 12.2288C37.5508 10.4585 36.5097 8.95978 35.0533 10.3028C33.9817 11.3008 32.2817 14.3026 32.4415 14.931C32.8181 16.3665 34.451 15.2476 36.4031 12.2288Z" fill="#1e81f6"/>
<path d="M26.7541 14.9275C27.6884 15.3509 28.0951 14.8209 28.1956 13.0514C28.3758 9.55668 27.4825 7.9974 25.5782 8.50594C24.675 8.74258 25.7156 14.4605 26.7541 14.9275Z" fill="#1e81f6"/>
<path d="M16.9242 14.6685C18.9186 16.5615 20.3582 17.4668 21.1616 17.2808C22.1572 17.0552 22.0416 16.7133 20.463 15.1352C18.4542 13.0998 17.2989 12.4314 16.0912 12.6006C15.2334 12.7177 15.437 13.2419 16.9242 14.6685Z" fill="#1e81f6"/>
<path d="M35.761 17.4968C35.1695 18.0048 35.1677 18.0202 35.5336 18.3606C36.5752 19.328 37.8712 18.8098 43.1827 15.2676C44.6088 14.3116 42.5709 13.1791 40.9383 14.0324C40.0884 14.4785 36.4561 16.9073 35.761 17.4968Z" fill="#1e81f6"/>
<path d="M50.8053 47.4417C50.319 46.9308 50.0633 46.0566 50.05 44.8518C50.039 44.0222 49.9146 30.3183 49.551 26.6653C49.2548 23.6298 47.6028 22.0118 46.1634 21.7629C45.2597 21.6088 44.6644 22.1476 44.322 21.8726C43.3953 21.1219 43.1526 20.7962 42.1554 20.7717C41.6895 20.7477 40.6241 20.9026 40.2331 21.1687C39.98 21.3262 39.6873 21.2915 39.0602 21.0452C35.9863 19.821 34.2256 22.675 35.112 27.4526C35.6161 30.1846 36.9245 29.1678 36.9529 26.0302C36.9923 21.8781 37.136 21.4576 38.3602 22.0716C39.0244 22.4005 39.0478 22.4658 38.8856 23.306C38.6524 24.4816 38.8411 30.0047 39.1255 30.2416C39.9072 30.8969 40.6714 29.9874 40.5677 28.4905C40.299 24.3019 41.1092 21.8196 42.5737 22.384C43.0213 22.5621 43.3109 23.0184 43.2543 23.4961C42.781 28.1437 42.4598 31.2466 43.8775 31.4148C44.7713 31.5208 44.7676 31.5516 45.0445 27.5059C45.3351 23.2117 45.8711 23.0409 46.5988 23.3616C47.6527 23.8304 47.4571 26.4013 47.4827 27.1075C47.4809 27.1229 48.0179 43.4074 48.0142 43.4382C47.8756 47.1097 49.7624 50.5684 51.4703 49.7396C51.8195 49.5622 51.3885 48.0578 50.8053 47.4417Z" fill="#1e81f6"/>
<path d="M15.0478 23.5081C15.3422 21.0271 15.3968 20.8304 15.9557 20.3342C16.9566 19.4059 17.1224 20.3788 16.7288 25.1452C16.4408 28.6271 16.4507 28.6752 17.1648 28.9787C18.0855 29.3848 18.231 28.9489 18.5875 25.0219C18.8983 21.4803 18.9283 21.3588 19.4455 20.9514C20.5161 20.0939 20.6707 20.5029 20.6746 23.8944C20.6645 25.9559 20.4983 27.0926 19.9663 28.811C19.8362 29.2487 19.8968 29.3966 20.2538 29.5483C21.2244 29.9291 21.4341 29.6102 22.0743 26.717C23.1843 21.7075 22.6719 20.0996 19.8093 19.7287C18.9635 19.6128 18.0055 19.3897 17.6848 19.1954C17.3622 19.0165 16.6045 18.8172 16.0017 18.7613C15.3989 18.7054 14.4181 18.5422 13.8416 18.3957C13.1438 18.2191 12.5509 18.2113 12.1129 18.3468C10.2439 18.9533 9.82231 19.8722 6.40918 30.8593C5.8244 32.7589 5.13669 35.1307 4.90998 36.1196C4.47303 37.9586 3.56799 40.0546 2.49296 41.7398C1.74571 42.9013 1.83141 43.3646 2.78683 43.478C4.49735 43.6809 6.42907 41.0973 7.24761 37.4908C7.6783 35.5729 8.12781 34.8136 9.27074 30.4487C11.4566 22.0351 11.7893 21.0744 12.771 20.1751C14.1203 18.9444 13.9594 19.3785 13.1665 27.3792C13.1263 27.7182 13.4035 28.0167 13.7461 28.0261C14.368 28.053 14.5743 27.4993 15.0478 23.5081Z" fill="#1e81f6"/>
<path d="M41.2652 48.1696C40.5065 46.2668 40.4367 46.1961 38.7328 45.8064C36.6644 45.3266 35.1433 44.3179 34.5887 43.0645C33.3721 40.2792 32.0511 33.1059 32.4786 31.6096C33.0718 29.5078 33.7623 29.746 34.6292 32.3179C35.3117 34.3366 35.8323 35.086 37.7841 36.9428C38.6554 37.765 39.1661 38.4662 39.4617 39.267C39.8297 40.2483 39.9809 40.4225 40.5357 40.4883C42.4311 40.7132 40.654 36.33 38.4303 35.3161C37.4806 34.8909 37.2035 34.5923 37.2638 34.0838C37.5655 31.5412 34.1789 28.3422 32.0785 29.1868C30.2718 29.9258 29.9649 31.327 30.6297 35.7345C31.9087 44.1842 32.9749 45.9984 37.1534 46.8692C38.784 47.2189 39.1517 47.5438 39.7992 49.1989C40.6854 51.4762 42.169 50.1677 41.9472 49.7976C41.8712 49.6479 41.5664 48.9241 41.2652 48.1696Z" fill="#1e81f6"/>
<path d="M22.7604 29.096C21.5733 29.4864 20.2023 30.6365 19.5321 31.8071C19.039 32.6706 18.9202 32.7502 18.0408 32.7866C16.126 32.8563 14.3262 34.0648 13.9023 35.5303C13.5294 36.83 14.8049 37.6689 15.4407 36.5254C16.2725 35.0458 17.6942 33.9956 19.1385 33.8075C20.0271 33.6942 21.9578 32.173 23.6668 30.2818C24.7468 29.0816 25.1529 30.9269 24.2607 32.915C21.4697 39.0535 18.4177 42.2543 15.3417 42.2332C14.0444 42.2355 13.7359 42.4646 12.384 44.5076C11.4916 45.8394 11.467 45.9146 11.8194 46.2377C12.6635 47.0254 13.6187 46.4824 14.4318 44.7662C14.9941 43.5827 15.0477 43.5266 16.0151 43.4069C19.6673 42.9182 21.6726 41.0309 24.963 35.0299C27.4751 30.4523 26.5157 27.8694 22.7604 29.096Z" fill="#1e81f6"/>
</svg>
