<svg width="81" height="81" viewBox="0 0 81 81" fill="none" xmlns="http://www.w3.org/2000/svg">
<path d="M21.551 55.6123C24.1442 53.8774 23.0146 52.9553 20.2846 54.5826C18.7872 55.4699 18.6841 55.6285 19.1796 56.1384C19.6486 56.6312 20.1936 56.5155 21.551 55.6123Z" fill="#1e81f6"/>
<path d="M20.9837 56.8038C19.8773 57.4943 19.7148 57.8021 20.3477 58.1007C21.007 58.4163 22.1299 58.0185 23.0638 57.1597C24.3736 55.9249 22.7929 55.6681 20.9837 56.8038Z" fill="#1e81f6"/>
<path d="M61.5266 35.6232C60.2172 35.0354 59.916 34.6893 60.3136 34.3088C60.56 34.0743 61.5986 29.8444 62.2371 26.5196C63.0485 22.2925 63.2024 22.3738 56.9667 23.5833L52.523 24.4352L52.7661 23.5408C54.8513 15.7629 52.8634 12.836 48.2965 16.9718C47.1505 18.0123 45.7535 19.2656 45.1907 19.7267C43.9965 20.7547 44.0817 20.9417 43.8449 17.142C43.6199 13.6132 42.3951 12.7797 40.4347 14.8131C40.0807 15.1844 38.8607 16.6279 37.7405 18.0047C35.3581 20.9478 35.5794 20.8098 34.7192 19.7622C32.9817 17.6934 30.9529 17.2583 30.4999 18.8808C29.9169 20.9636 30.0789 28.0596 30.7091 28.1308C31.4575 28.2226 32.5122 25.3562 32.8184 22.3981C32.8784 21.9297 33.9757 22.6992 34.4487 23.5328C35.0334 24.5705 35.5276 24.215 38.3717 20.7639C39.4357 19.4446 40.3717 18.3803 40.3935 18.3757C40.4371 18.3664 40.4807 19.1089 40.4868 19.9961C40.5839 26.0351 41.7483 25.0818 46.3079 21.4488C50.417 18.1619 49.9673 18.189 49.6498 21.309L49.2592 25.2646C49.0052 27.8244 49.9855 28.687 51.7544 27.4687C52.5477 26.9131 58.9406 25.6929 59.0193 26.0635C59.0378 26.1507 58.682 27.4792 58.2494 28.9834C57.0978 32.8955 57.0146 34.0066 56.5926 34.9162C56.1785 35.7559 56.9291 37.1456 57.8598 37.1303C58.8342 37.1058 60.3544 38.15 63.1851 39.8956C56.7925 44.1227 56.5565 43.7628 61.2828 47.9992C62.608 49.1987 63.6863 50.2 63.6519 50.2528C63.6129 50.2839 62.1386 50.5285 60.3451 50.7724C55.807 51.3939 55.4654 51.7169 57.0272 53.709C57.9945 54.9389 57.9727 54.9436 56.1342 54.3314C52.3034 53.0259 49.9236 54.6927 53.6375 56.0914C62.6066 59.4958 63.637 59.4138 61.7645 55.5285C60.3942 52.7211 60.4067 52.6729 61.3018 52.5968C62.5331 52.495 65.9086 51.8698 66.9153 51.9978C70.0102 52.4117 69.0119 50.391 64.1093 46.397C62.7015 45.2378 61.5268 44.2114 61.5037 44.1024C61.4482 43.8408 65.7251 40.7007 66.6691 40.3181C67.4043 40.0254 67.3493 39.4447 66.6239 38.7102C65.7525 37.8245 63.9913 36.7175 61.5266 35.6232Z" fill="#1e81f6"/>
<path d="M38.9342 56.6834C43.6454 55.9114 47.9861 56.7215 51.998 52.9769C56.9658 48.3688 49.1119 33.4742 44.4153 29.163C41.305 26.3149 37.5859 25.2135 33.8117 28.3609C31.5263 30.2583 31.0956 30.8053 28.6453 35.0386C27.4756 37.0409 26.0972 39.1331 25.5701 39.6551C25.0476 40.1988 24.413 40.8574 24.1494 41.1184C17.9155 47.7037 16.5536 49.3368 16.2241 50.6825C15.3188 54.36 16.9059 58.5109 19.9342 60.3285C20.7441 60.8173 27.0192 63.3354 27.2808 63.2799C27.368 63.2614 27.9105 63.6702 28.476 64.1881C32.6863 68.0329 36.628 68.3581 39.5666 65.1375C41.6769 62.8444 41.2672 61.4506 37.8815 59.3444L36.8337 58.7011L37.3851 56.8983L38.9342 56.6834ZM17.893 53.6087C18.1167 50.6908 21.3121 45.8894 21.4491 48.2523C21.6191 51.2005 25.227 55.8565 28.3946 57.2573L29.704 57.8451L29.013 58.5612C25.5256 62.3084 17.5203 58.7223 17.893 53.6087ZM37.8297 62.7496C37.2993 63.3634 36.5382 62.5681 36.5382 62.5681C35.4019 61.8297 34.6086 62.3854 35.4661 63.2057C36.0626 63.7625 36.2979 63.6898 35.7919 64.5262C35.0628 65.7061 34.6116 65.6196 31.9129 63.9598C27.6645 61.3305 27.3401 60.8754 28.9142 59.8123C29.6903 59.2831 29.6751 59.1041 30.3972 59.9304C31.6907 61.41 32.7641 60.8861 34.9757 60.1433C35.2716 60.035 35.5827 60.1056 35.8252 60.2819L36.5928 60.8935C37.1695 61.2495 38.2306 62.2773 37.8297 62.7496ZM34.3385 57.2487C35.2482 57.6707 33.9503 59.1763 33.2745 59.3197C32.8168 59.4169 31.5604 58.8635 31.491 58.5365C31.3984 58.1005 33.7057 56.9502 34.3385 57.2487ZM28.4691 55.0318C22.5988 51.6304 21.4383 46.5916 25.6141 42.6528C28.1557 40.2454 30.2574 37.5896 31.6305 35.0429C32.1397 34.1147 32.6825 32.701 33.0617 32.2333C33.6515 31.4703 33.8762 31.9921 33.6351 32.6811C30.6323 40.8588 34.9448 48.9418 38.9469 51.8057C44.183 55.5467 50.8585 52.3303 49.7528 47.1204C49.503 45.9432 48.9507 45.8099 48.8022 46.9349C47.8894 54.4411 42.5892 50.8277 42.5674 50.8323C42.7145 48.8419 42.6476 47.2387 45.0169 45.4146C49.2317 42.1965 43.6907 35.946 39.024 38.6449C37.1184 39.7556 34.6029 39.1732 34.3604 38.9968C34.3558 38.975 33.6245 33.2757 36.8928 30.2129C37.8221 29.3322 36.8305 28.6314 35.7175 29.5055C34.9771 30.0955 34.5219 29.6681 34.7702 29.2281C35.4512 28.0357 36.8951 27.4331 37.964 27.6391C47.3424 29.4303 57.8896 51.8632 47.3846 53.8876C45.9849 54.1619 42.9496 54.3505 38.5271 54.7652C34.4018 55.1851 32.0556 57.1182 28.4691 55.0318ZM35.534 42.1649C35.4738 41.8815 35.7076 41.6952 36.6872 41.3734C37.3663 41.1382 38.0315 40.8375 38.1874 40.7133C38.9139 40.0579 39.161 40.2561 39.6295 41.8196C40.1614 43.5747 41.1082 44.9228 41.9809 45.1705C42.3185 45.2583 42.6045 45.4254 42.623 45.5126C42.66 45.687 39.9209 48.7742 39.6593 48.8297C39.2498 48.9394 35.7792 43.3202 35.534 42.1649ZM42.3205 39.4716C42.7538 39.9036 43.9927 42.306 44.1408 43.0035C44.2703 43.6139 43.6704 43.1489 42.7514 41.9316C41.4334 40.2294 41.1088 38.2708 42.3205 39.4716Z" fill="#1e81f6"/>
</svg>
